PathFileType	4	(X/Y/Z)	TVC_26_Cal_03_0_static_RCNL2025.trc
DataRate	CameraRate	NumFrames	NumMarkers	Units	OrigDataRate	OrigDataStartFrame	OrigNumFrames
100	100	11	27	mm	100	263	420
Frame#	Time	R_Shoulder			L_Shoulder			C7			J_Notch			R_Elbow			L_Elbow			R_Wrist			L_Wrist			R_Asis			L_Asis			R_Psis			L_Psis			Sacral			Thoracic			Sternum			R_Thigh_Lateral			R_Knee_Lateral			R_Shank_Lateral			R_Ankle_Lateral			R_Heel			R_Toe			L_Thigh_Lateral			L_Knee_Lateral			L_Shank_Lateral			L_Ankle_Lateral			L_Heel			L_Toe		
		X1	Y1	Z1	X2	Y2	Z2	X3	Y3	Z3	X4	Y4	Z4	X5	Y5	Z5	X6	Y6	Z6	X7	Y7	Z7	X8	Y8	Z8	X9	Y9	Z9	X10	Y10	Z10	X11	Y11	Z11	X12	Y12	Z12	X13	Y13	Z13	X14	Y14	Z14	X15	Y15	Z15	X16	Y16	Z16	X17	Y17	Z17	X18	Y18	Z18	X19	Y19	Z19	X20	Y20	Z20	X21	Y21	Z21	X22	Y22	Z22	X23	Y23	Z23	X24	Y24	Z24	X25	Y25	Z25	X26	Y26	Z26	X27	Y27	Z27
263	2.62000000	-179.278137	1355.091431	-129.595001	-103.159897	1383.290649	-441.676575	-218.020920	1416.621704	-296.198059	-84.680252	1307.375854	-263.656738	-194.844360	1030.572998	8.799680	-105.517105	1050.032837	-531.075867	-177.534142	819.476349	40.916421	-99.231316	827.651947	-512.018936	-145.799332	951.430847	-130.674393	-51.148571	956.348877	-401.954987	-315.262299	973.613708	-258.282013	-269.835724	966.284424	-398.811493	-292.549011	969.949066	-328.546753	-287.482117	1140.627686	-333.940033	-36.305229	1074.936035	-272.202881	-226.690079	580.068176	-91.677406	-239.625381	434.284546	-138.542480	-258.202026	283.484863	-86.697693	-269.407318	75.439919	-136.848190	-313.105164	54.683239	-185.236313	-128.844009	40.065662	-149.657898	-86.711357	583.441772	-458.422058	-182.103714	415.648315	-425.257202	-164.522644	266.779022	-459.294159	-195.954147	66.938499	-390.556915	-251.204346	50.655865	-348.393250	-59.974918	39.805626	-350.782471
264	2.63000000	-179.149124	1355.105225	-129.647766	-102.972397	1383.337891	-441.713623	-217.848938	1416.523193	-296.246124	-84.533165	1307.285645	-263.716705	-194.690018	1030.792236	8.757753	-105.388802	1050.135620	-531.094421	-177.351295	819.523315	40.980949	-99.276039	827.547424	-512.130630	-145.736389	951.360352	-130.811218	-51.142689	956.259094	-401.763519	-315.166351	973.663269	-258.365234	-269.775543	966.271606	-398.856934	-292.470947	969.967438	-328.611084	-287.305908	1140.602783	-334.061768	-36.196995	1074.886719	-272.224060	-226.690384	580.011353	-91.811111	-239.550201	434.316193	-138.685287	-258.009521	283.809937	-86.786446	-269.345734	75.468727	-136.874100	-313.109070	54.691105	-185.234802	-128.666748	40.426300	-149.690582	-86.678635	583.448547	-458.686249	-182.043045	415.643463	-425.277008	-164.918915	266.561829	-459.166931	-195.910629	67.167809	-390.673126	-251.265717	50.577244	-348.415405	-59.990337	39.785744	-350.832977
265	2.64000000	-179.078033	1355.126831	-129.735611	-102.849930	1383.376831	-441.808899	-217.708221	1416.572632	-296.298126	-84.409256	1307.269653	-263.679230	-194.611633	1030.751099	8.758456	-105.197433	1050.134644	-531.145691	-177.146797	819.534180	41.090184	-99.165447	827.504944	-512.138611	-145.481232	951.470947	-130.816467	-51.012646	956.276062	-401.957672	-315.150482	973.655273	-258.378845	-269.581390	966.300903	-398.998993	-292.365936	969.978088	-328.688919	-287.143890	1140.638916	-334.067596	-36.122341	1074.867920	-272.284851	-226.710785	580.099426	-91.961258	-239.482056	434.315155	-138.682358	-257.915375	283.945740	-86.869492	-269.046875	75.360268	-137.186661	-313.128387	54.704227	-185.184799	-128.675186	40.489353	-149.694839	-86.685059	583.455750	-458.738220	-182.073242	415.618408	-425.377136	-164.810791	265.735107	-459.246582	-195.187561	67.805145	-390.728363	-251.291702	50.570477	-348.375916	-59.994953	39.780457	-350.818756
266	2.65000000	-178.897217	1355.102905	-129.843277	-102.600449	1383.390503	-441.866852	-217.489273	1416.370605	-296.427917	-84.342293	1307.195068	-263.797638	-194.517044	1030.882446	8.816085	-104.991516	1049.957886	-531.243958	-177.023056	819.588531	41.219569	-98.990295	827.533417	-512.242981	-145.442108	951.391113	-130.823135	-50.947849	956.269470	-402.044495	-314.989502	973.595337	-258.481964	-269.513824	966.316101	-399.044800	-292.251663	969.955719	-328.763382	-287.056305	1140.692871	-334.126587	-35.944336	1074.897095	-272.321625	-226.684235	580.111328	-92.019554	-239.461212	434.368317	-138.817657	-257.878601	283.958313	-86.924820	-269.291748	75.465424	-136.899704	-313.055023	54.647945	-185.387070	-128.816162	40.088181	-149.711349	-86.692047	583.387756	-458.748444	-182.010300	415.638367	-425.373108	-164.979843	266.161194	-459.172241	-195.779999	67.232689	-390.694305	-251.266312	50.655109	-348.405182	-59.980190	39.788540	-350.792664
267	2.66000000	-178.684753	1355.115356	-129.862473	-102.448181	1383.243896	-441.880585	-217.372620	1416.516846	-296.443695	-84.165497	1307.191040	-263.848419	-194.441681	1030.899170	8.872462	-104.824265	1049.946045	-531.277649	-176.917297	819.674744	41.275458	-98.758858	827.575806	-512.274536	-145.301331	951.450806	-130.752029	-50.776676	956.278625	-402.121490	-314.933044	973.639038	-258.657440	-269.457062	966.309998	-399.107758	-292.195053	969.974518	-328.882599	-286.938660	1140.630859	-334.236420	-35.891899	1074.895142	-272.361877	-226.729813	580.068848	-92.113785	-239.472351	434.362823	-138.859665	-257.893799	283.947723	-86.906212	-269.473785	75.553497	-136.798782	-313.031219	54.627930	-185.423431	-128.695923	40.448383	-149.691696	-86.612846	583.380432	-458.854004	-181.989517	415.641510	-425.406647	-165.122986	266.367889	-459.125061	-195.912582	67.148979	-390.735565	-251.288559	50.584503	-348.378235	-59.990612	39.780994	-350.811401
268	2.67000000	-178.585510	1355.087402	-129.943619	-102.350487	1383.313232	-441.952454	-217.239517	1416.492554	-296.550690	-84.057274	1307.225220	-263.943848	-194.371887	1030.854126	8.893924	-104.736992	1049.958008	-531.341370	-176.781082	819.717926	41.385007	-98.718239	827.482269	-512.365875	-145.143143	951.505432	-130.718796	-50.707111	956.258972	-402.213318	-314.904999	973.625671	-258.707184	-269.322662	966.345398	-399.158752	-292.113831	969.985535	-328.932968	-286.780518	1140.662231	-334.242462	-35.772224	1074.787598	-272.383820	-226.596634	580.173889	-92.210495	-239.550735	434.358398	-138.854660	-258.288788	283.617859	-86.901283	-269.420258	75.598618	-136.845993	-313.007874	54.715565	-185.313889	-128.649643	40.481018	-149.735703	-86.545464	583.345825	-458.730347	-182.035339	415.598297	-425.488190	-165.003036	266.565338	-459.321167	-195.937378	67.156075	-390.685822	-251.261505	50.628288	-348.418488	-59.998604	39.779110	-350.792053
269	2.68000000	-178.496109	1355.163940	-129.903229	-102.210365	1383.304199	-441.930939	-217.103745	1416.482056	-296.581207	-83.947685	1307.198364	-263.921509	-194.248230	1030.863281	8.894910	-104.548088	1049.895386	-531.389343	-176.708511	819.774597	41.438215	-98.567413	827.472656	-512.480743	-145.051468	951.465637	-130.800262	-50.623802	956.219910	-402.322601	-314.717468	973.541504	-258.739166	-269.162292	966.355713	-399.247467	-291.939880	969.948608	-328.993317	-286.682404	1140.638916	-334.307129	-35.676479	1074.809570	-272.476166	-226.528702	580.071838	-92.251427	-239.624176	434.307922	-138.864090	-258.082184	284.061218	-87.012939	-269.411072	75.615692	-136.841080	-313.060608	54.777222	-185.383453	-128.809677	40.071808	-149.700882	-86.456703	583.301941	-458.848663	-181.795822	415.562317	-425.415771	-164.997772	266.493988	-459.386169	-195.829025	67.137589	-390.737335	-251.268066	50.583122	-348.420380	-59.997654	39.796898	-350.784058
270	2.69000000	-178.304733	1355.136108	-130.034698	-102.076279	1383.232544	-441.903717	-216.950592	1416.375122	-296.706482	-83.895851	1307.047729	-263.998962	-194.159393	1030.871338	8.845869	-104.435753	1049.941650	-531.479309	-176.570213	819.792450	41.424292	-98.481697	827.438934	-512.499603	-144.954742	951.398865	-130.947998	-50.504005	956.221924	-402.273193	-314.678345	973.593933	-258.876740	-269.083771	966.434265	-399.320770	-291.881058	970.014099	-329.098755	-286.514801	1140.681396	-334.340393	-35.677578	1074.753662	-272.461823	-226.497528	580.019897	-92.285614	-239.693161	434.346283	-138.925140	-258.418579	283.815033	-86.969688	-269.418243	75.582169	-136.841690	-312.998077	54.773796	-185.435349	-128.921066	39.990036	-149.634613	-86.508102	583.380615	-458.899170	-181.948273	415.606110	-425.537842	-165.088379	266.230988	-459.168640	-195.784897	67.364151	-390.770172	-251.269730	50.574886	-348.416687	-60.013264	39.776398	-350.814117
271	2.70000000	-178.131470	1355.076904	-130.099976	-101.912392	1383.269409	-441.989929	-216.703796	1416.424683	-296.602295	-83.716988	1307.040283	-264.104004	-194.142197	1030.878052	8.813446	-104.289261	1049.918579	-531.523682	-176.509872	819.796143	41.462961	-98.391701	827.404236	-512.488708	-144.778763	951.408325	-130.845047	-50.359703	956.062866	-402.260345	-314.538208	973.579407	-258.879272	-268.918610	966.336548	-399.438751	-291.728409	969.957977	-329.159012	-286.426453	1140.677124	-334.385254	-35.525875	1074.727295	-272.475800	-226.561325	580.192017	-92.340469	-239.736404	434.367554	-138.955643	-258.276642	284.353394	-87.106987	-269.393158	75.599358	-136.861420	-312.993256	54.683979	-185.410431	-128.883316	40.027977	-149.615448	-86.424034	583.309875	-458.940857	-181.758804	415.565521	-425.467834	-164.989014	266.363098	-459.293671	-195.862885	67.202591	-390.753113	-251.225632	50.643513	-348.365082	-60.055046	39.837460	-350.840332
272	2.71000000	-178.016342	1355.082886	-130.141678	-101.751633	1383.218506	-441.984833	-216.678848	1416.341064	-296.722961	-83.554756	1307.025635	-264.166016	-194.091446	1030.896851	8.874963	-104.175797	1049.927368	-531.635071	-176.439468	819.805664	41.462848	-98.225487	827.400330	-512.571960	-144.793427	951.218262	-131.014999	-50.248543	956.069214	-402.233917	-314.422272	973.514282	-258.949432	-268.805084	966.353027	-399.444489	-291.613678	969.933655	-329.196960	-286.328522	1140.718994	-334.480927	-35.344975	1074.680298	-272.563141	-226.656128	580.136780	-92.320885	-239.733246	434.375763	-138.957474	-258.304016	284.583466	-87.011230	-269.480835	75.709641	-136.798492	-313.043579	54.807663	-185.453354	-128.924789	40.020817	-149.653107	-86.291145	583.285217	-458.897156	-181.928101	415.581543	-425.554443	-164.662552	266.391876	-459.519501	-195.834030	67.452965	-390.827850	-251.253677	50.631924	-348.424500	-59.994740	39.771965	-350.779297
273	2.72000000	-177.918488	1354.992065	-130.217957	-101.591270	1383.210083	-442.035522	-216.437500	1416.586914	-296.696594	-83.418816	1307.023071	-264.160583	-193.903259	1030.898926	8.787969	-104.009079	1049.848022	-531.731262	-176.337753	819.796295	41.520035	-97.967827	827.342316	-512.538147	-144.643555	951.235291	-131.013245	-50.171764	955.965576	-402.189758	-314.383179	973.577087	-259.012360	-268.668182	966.367981	-399.509949	-291.525681	969.972534	-329.261154	-286.180237	1140.721924	-334.466553	-35.275726	1074.658691	-272.626953	-226.781036	580.221863	-92.319664	-239.714401	434.311829	-138.920593	-258.690094	284.185577	-86.900879	-269.586914	75.743050	-136.856201	-312.996185	54.839928	-185.442261	-128.803818	39.987129	-149.708923	-86.338676	583.305054	-458.953125	-181.737106	415.507782	-425.498718	-164.824539	266.464111	-459.433167	-195.138306	67.831856	-390.846375	-251.269012	50.676712	-348.405273	-59.992794	39.774933	-350.783783
